<?xml version="1.0" encoding="UTF-8" standalone="no"?>
<svg
   xmlns:dc="http://purl.org/dc/elements/1.1/"
   xmlns:cc="http://creativecommons.org/ns#"
   xmlns:rdf="http://www.w3.org/1999/02/22-rdf-syntax-ns#"
   xmlns:svg="http://www.w3.org/2000/svg"
   xmlns="http://www.w3.org/2000/svg"
   xmlns:sodipodi="http://sodipodi.sourceforge.net/DTD/sodipodi-0.dtd"
   xmlns:inkscape="http://www.inkscape.org/namespaces/inkscape"
   version="1.1"
   width="24"
   height="24"
   viewBox="0 0 24 24"
   id="svg3123"
   inkscape:version="0.48.5 r10040"
   sodipodi:docname="hipervideo.svg"
   inkscape:export-filename="/home/guzz/Downloads/hipervideo.png"
   inkscape:export-xdpi="800"
   inkscape:export-ydpi="800">
  <metadata
     id="metadata3131">
    <rdf:RDF>
      <cc:Work
         rdf:about="">
        <dc:format>image/svg+xml</dc:format>
        <dc:type
           rdf:resource="http://purl.org/dc/dcmitype/StillImage" />
        <dc:title></dc:title>
      </cc:Work>
    </rdf:RDF>
  </metadata>
  <defs
     id="defs3129" />
  <sodipodi:namedview
     pagecolor="#ffffff"
     bordercolor="#666666"
     borderopacity="1"
     objecttolerance="10"
     gridtolerance="10"
     guidetolerance="10"
     inkscape:pageopacity="0"
     inkscape:pageshadow="2"
     inkscape:window-width="1366"
     inkscape:window-height="700"
     id="namedview3127"
     showgrid="false"
     inkscape:zoom="2.8284271"
     inkscape:cx="-51.336484"
     inkscape:cy="0.58514923"
     inkscape:window-x="0"
     inkscape:window-y="29"
     inkscape:window-maximized="1"
     inkscape:current-layer="svg3123" />
  <path
     d="m 2,22 0,-9 2.9932717,0 0,2 L 4,15 l 0,5 5,0 0,-3.582001 2,0 L 11,22 2,22 m 11,-20 9,0 0,9 -2.993272,0 0,-2 L 20,9 l 0,-5 -5,0 0,3.5100925 -2,0 L 13,2"
     id="path3125"
     inkscape:connector-curvature="0"
     sodipodi:nodetypes="cccccccccccccccccccccc"
     inkscape:export-filename="/home/guzz/Downloads/hipervideo.png"
     inkscape:export-xdpi="800"
     inkscape:export-ydpi="800"
     style="fill:#000000" />
  <path
     id="path3133"
     d="m 2,2 9,0 0,5.5100925 -2,0 L 9,4 4,4 l 0,5 0.9932717,0 0,2 L 2,11 2,2 m 20,11 0,9 -9,0 0,-5.582001 2,0 L 15,20 l 5,0 0,-5 -0.993272,0 0,-2 L 22,13"
     inkscape:connector-curvature="0"
     sodipodi:nodetypes="cccccccccccccccccccccc"
     inkscape:export-filename="/home/guzz/Downloads/hipervideo.png"
     inkscape:export-xdpi="800"
     inkscape:export-ydpi="800"
     style="fill:#000000" />
  <path
     d="M 10.290565,9.0618335 14.929774,12 10.290565,14.938167 z"
     id="path3135"
     inkscape:export-filename="/home/guzz/Downloads/hipervideo.png"
     inkscape:export-xdpi="800"
     inkscape:export-ydpi="800"
     inkscape:connector-curvature="0"
     sodipodi:nodetypes="cccc"
     style="fill:#ffffff" />
  <text
     xml:space="preserve"
     style="font-size:40px;font-style:normal;font-variant:normal;font-weight:normal;font-stretch:normal;line-height:125%;letter-spacing:0px;word-spacing:0px;fill:#000000;fill-opacity:1;stroke:none;font-family:Courier 10 Pitch;-inkscape-font-specification:Courier 10 Pitch"
     x="-25.009935"
     y="34.091957"
     id="text3274"
     sodipodi:linespacing="125%"
     inkscape:export-filename="/home/guzz/Downloads/hipervideo.png"
     inkscape:export-xdpi="800"
     inkscape:export-ydpi="800"><tspan
       sodipodi:role="line"
       id="tspan3276"
       x="-25.009935"
       y="34.091957"
       style="font-size:10px;font-style:normal;font-variant:normal;font-weight:normal;font-stretch:normal;font-family:GentiumAlt;-inkscape-font-specification:GentiumAlt">&lt;<tspan
   style="font-style:normal;font-variant:normal;font-weight:normal;font-stretch:normal;font-family:ChunkFive;-inkscape-font-specification:ChunkFive"
   id="tspan2994">HIPERVIDEO</tspan>&gt;</tspan></text>
  <path
     style="fill:#000000"
     sodipodi:nodetypes="cccc"
     inkscape:connector-curvature="0"
     inkscape:export-ydpi="800"
     inkscape:export-xdpi="800"
     inkscape:export-filename="/home/guzz/Downloads/hipervideo.png"
     id="path3765"
     d="M 10.290565,9.0618335 14.929774,12 10.290565,14.938167 z" />
  <rect
     ry="1.3737456"
     y="-32.496567"
     x="-86.248322"
     height="23.988985"
     width="23.990789"
     id="rect3786"
     style="fill:#673ab7;fill-opacity:1;stroke:none" />
  <path
     style="fill:#ffffff"
     inkscape:export-ydpi="800"
     inkscape:export-xdpi="800"
     inkscape:export-filename="/home/guzz/Downloads/hipervideo.png"
     sodipodi:nodetypes="cccccccccccccccccccccc"
     inkscape:connector-curvature="0"
     id="path3788"
     d="m -84.25,-10.5 0,-9 2.993272,0 0,2 -0.993272,0 0,5 5,0 0,-3.582001 2,0 0,5.582001 -9,0 m 11,-20 9,0 0,9 -2.993272,0 0,-2 0.993272,0 0,-5 -5,0 0,3.510093 -2,0 0,-5.510093" />
  <path
     style="fill:#ffffff"
     inkscape:export-ydpi="800"
     inkscape:export-xdpi="800"
     inkscape:export-filename="/home/guzz/Downloads/hipervideo.png"
     sodipodi:nodetypes="cccccccccccccccccccccc"
     inkscape:connector-curvature="0"
     d="m -84.25,-30.5 9,0 0,5.510093 -2,0 0,-3.510093 -5,0 0,5 0.993272,0 0,2 -2.993272,0 0,-9 m 20,11 0,9 -9,0 0,-5.582001 2,0 0,3.582001 5,0 0,-5 -0.993272,0 0,-2 2.993272,0"
     id="path3790" />
  <path
     style="fill:#ffffff"
     sodipodi:nodetypes="cccc"
     inkscape:connector-curvature="0"
     inkscape:export-ydpi="800"
     inkscape:export-xdpi="800"
     inkscape:export-filename="/home/guzz/Downloads/hipervideo.png"
     id="path3792"
     d="m -75.959435,-23.438166 4.639209,2.938166 -4.639209,2.938167 z" />
  <path
     d="m -75.959435,-23.438166 4.639209,2.938166 -4.639209,2.938167 z"
     id="path3794"
     inkscape:export-filename="/home/guzz/Downloads/hipervideo.png"
     inkscape:export-xdpi="800"
     inkscape:export-ydpi="800"
     inkscape:connector-curvature="0"
     sodipodi:nodetypes="cccc"
     style="fill:#ffffff" />
</svg>
